<svg width="37" height="31" viewBox="0 0 37 31" fill="none" xmlns="http://www.w3.org/2000/svg">
<path d="M4.67017 22.0299L5.64905 22.2343L5.76232 21.692L5.3625 21.3083L4.67017 22.0299ZM1.52582 27.0784L2.17659 27.8377H2.17659L1.52582 27.0784ZM12.1317 26.1881L12.4113 25.228L11.9482 25.0932L11.5544 25.3716L12.1317 26.1881ZM35.0001 14.0392C35.0001 17.2517 33.2547 20.2387 30.277 22.4574C27.2991 24.6762 23.1386 26.0784 18.5001 26.0784V28.0784C23.5265 28.0784 28.116 26.5617 31.4719 24.0612C34.8279 21.5607 37.0001 18.028 37.0001 14.0392H35.0001ZM18.5001 2C23.1386 2 27.2991 3.40219 30.277 5.62098C33.2547 7.83972 35.0001 10.8267 35.0001 14.0392H37.0001C37.0001 10.0504 34.8279 6.51774 31.4719 4.01721C28.116 1.51674 23.5265 0 18.5001 0V2ZM2.00008 14.0392C2.00008 10.8267 3.74541 7.83972 6.72319 5.62098C9.70104 3.40219 13.8615 2 18.5001 2V0C13.4737 0 8.88413 1.51674 5.52823 4.01721C2.17226 6.51774 8.15988e-05 10.0504 8.15988e-05 14.0392H2.00008ZM5.3625 21.3083C3.22067 19.2533 2.00008 16.7293 2.00008 14.0392H8.15988e-05C8.15988e-05 17.371 1.51883 20.3921 3.97784 22.7515L5.3625 21.3083ZM2.17659 27.8377C3.99144 26.2822 5.14381 24.6537 5.64905 22.2343L3.69129 21.8255C3.29531 23.7216 2.4329 24.9839 0.875042 26.3191L2.17659 27.8377ZM2.89856 28.1372C2.3832 28.1372 2.11633 28.0584 2.0016 28.0031C1.90987 27.9589 1.9638 27.9581 1.99177 28.0486C2.01176 28.1134 1.98556 28.1227 2.01509 28.0523C2.04393 27.9836 2.10264 27.9011 2.17659 27.8377L0.875043 26.3191C0.582131 26.5702 0.328745 26.9022 0.170865 27.2785C0.0136814 27.6531 -0.0738596 28.1378 0.0807787 28.6387C0.424035 29.7504 1.60538 30.1372 2.89856 30.1372V28.1372ZM11.5544 25.3716C9.13361 27.0833 5.67442 28.1372 2.89856 28.1372V30.1372C6.08145 30.1372 9.94529 28.9588 12.7091 27.0047L11.5544 25.3716ZM18.5001 26.0784C16.3464 26.0784 14.2927 25.776 12.4113 25.228L11.8521 27.1483C13.9179 27.7499 16.16 28.0784 18.5001 28.0784V26.0784Z" fill="#88572B"/>
</svg>
