<svg width="34" height="31" viewBox="0 0 34 31" fill="none" xmlns="http://www.w3.org/2000/svg">
<path d="M32.9482 7.50262L31.9684 7.30281L32.9482 7.5026C33.225 6.14508 32.3141 4.60086 30.7495 4.60086H11.1253L10.7983 2.8192C10.7983 2.81918 10.7983 2.81916 10.7983 2.81915C10.6726 2.13448 10.2204 1.67093 9.7776 1.40199C9.33849 1.13529 8.82068 1 8.34615 1H3.25C2.01856 1 1 1.946 1 3.27888V4.20767C1 4.7938 1.18001 5.36837 1.59886 5.8019C2.02029 6.23809 2.5853 6.42939 3.15385 6.42939H6.10416L9.31656 20.6814L9.4924 21.4615H10.2921H28.2873C29.4171 21.4615 30.2767 20.6038 30.4861 19.5769L32.9482 7.50262Z" stroke="#88572B" stroke-width="2"/>
<circle cx="12.0771" cy="27.5247" r="2.87179" fill="#88572B"/>
<circle cx="27.6665" cy="27.5247" r="2.87179" fill="#88572B"/>
</svg>
