<svg width="32" height="32" viewBox="0 0 32 32" fill="none" xmlns="http://www.w3.org/2000/svg">
<path d="M16 21.2173C19.8956 21.2173 25.3333 21.3266 27.6667 23.0108C30.7585 25.2425 31 29.3164 31 30.9999M16.0913 15.6739C18.0804 15.6739 19.9881 14.9009 21.3946 13.5249C22.8011 12.149 23.5913 10.2828 23.5913 8.33693C23.5913 6.39106 22.8011 4.52488 21.3946 3.14894C19.9881 1.773 18.0804 1 16.0913 1C14.1022 1 12.1945 1.773 10.788 3.14894C9.38148 4.52488 8.59131 6.39106 8.59131 8.33693C8.59131 10.2828 9.38148 12.149 10.788 13.5249C12.1945 14.9009 14.1022 15.6739 16.0913 15.6739Z" stroke="#88572B" stroke-width="2" stroke-linecap="round"/>
<path d="M16 21.2173C12.1044 21.2173 6.66667 21.3266 4.33335 23.0108C1.24149 25.2425 1.00002 29.3164 1.00002 30.9999M15.9087 15.6739C13.9196 15.6739 12.0119 14.9009 10.6054 13.5249C9.19891 12.149 8.40874 10.2828 8.40874 8.33693C8.40874 6.39106 9.19891 4.52488 10.6054 3.14894C12.0119 1.773 13.9196 1 15.9087 1C17.8978 1 19.8055 1.773 21.212 3.14894C22.6185 4.52488 23.4087 6.39106 23.4087 8.33693C23.4087 10.2828 22.6185 12.149 21.212 13.5249C19.8055 14.9009 17.8978 15.6739 15.9087 15.6739Z" stroke="#88572B" stroke-width="2" stroke-linecap="round"/>
</svg>
